<svg xmlns="http://www.w3.org/2000/svg" version="1.1" xmlns:xlink="http://www.w3.org/1999/xlink" xmlns:svgjs="http://svgjs.dev/svgjs" width="2000" height="207" viewBox="0 0 2000 207"><g transform="matrix(1,0,0,1,-1.2121212121212466,-1.4345006844559691)"><svg viewBox="0 0 396 41" data-background-color="#ffffff" preserveAspectRatio="xMidYMid meet" height="207" width="2000" xmlns="http://www.w3.org/2000/svg" xmlns:xlink="http://www.w3.org/1999/xlink"><g id="tight-bounds" transform="matrix(1,0,0,1,0.2400000000000091,0.28412815489224386)"><svg viewBox="0 0 395.52 40.43174369021551" height="40.43174369021551" width="395.52"><g><svg viewBox="0 0 395.52 40.43174369021551" height="40.43174369021551" width="395.52"><g><svg viewBox="0 0 395.52 40.43174369021551" height="40.43174369021551" width="395.52"><g id="textblocktransform"><svg viewBox="0 0 395.52 40.43174369021551" height="40.43174369021551" width="395.52" id="textblock"><g><svg viewBox="0 0 395.52 40.43174369021551" height="40.43174369021551" width="395.52"><g transform="matrix(1,0,0,1,0,0)"><svg width="395.52" viewBox="3.05 -35.21 423.65 43.32" height="40.43174369021551" data-palette-color="#ff7474"><g class="wordmark-text-0" data-fill-palette-color="primary" id="text-0"><path d="M8.06 0L4.05 0Q3.05 0 3.05-1.03L3.05-1.03Q3.05-2.37 3.11-3.71 3.17-5.05 3.2-6.4L3.2-6.4Q3.27-9.23 3.3-12.05 3.32-14.87 3.32-17.68L3.32-17.68Q3.32-21.24 3.27-24.8 3.22-28.37 3.13-31.91L3.13-31.91 3.13-32.15Q3.13-32.35 3.19-33.03 3.25-33.72 3.64-33.72L3.64-33.72Q3.98-33.72 4.37-33.23 4.76-32.74 4.93-32.52L4.93-32.52Q8.69-27.42 12.18-22.08 15.67-16.75 19.34-11.57L19.34-11.57Q19.46-11.4 19.58-11.4L19.58-11.4Q19.7-11.4 19.82-11.57L19.82-11.57Q23.58-16.77 27.16-22.12 30.74-27.47 34.57-32.59L34.57-32.59Q34.74-32.81 35.14-33.29 35.55-33.76 35.86-33.76L35.86-33.76Q36.28-33.76 36.33-33.08 36.38-32.4 36.38-32.2L36.38-32.2 36.38-31.96Q36.28-28.39 36.23-24.82 36.18-21.24 36.18-17.68L36.18-17.68Q36.18-14.87 36.21-12.05 36.23-9.23 36.3-6.4L36.3-6.4Q36.35-5.05 36.4-3.71 36.45-2.37 36.45-1.03L36.45-1.03Q36.45 0 35.45 0L35.45 0 31.25 0Q30.71 0 30.51-0.24 30.3-0.49 30.25-0.98L30.25-0.98Q30.22-1.32 30.22-1.72 30.22-2.12 30.22-2.49L30.22-2.49 30.18-6.03Q30.13-8.69 30.1-11.35 30.08-14.01 30.08-16.67L30.08-16.67Q30.08-16.72 30.07-16.98 30.05-17.24 29.93-17.24L29.93-17.24Q29.83-17.24 29.71-17.05 29.59-16.87 29.54-16.82L29.54-16.82Q27.95-14.38 26.4-11.9 24.85-9.42 23.27-6.96L23.27-6.96Q22.63-5.96 22-4.93 21.36-3.91 20.68-2.93L20.68-2.93Q20.53-2.73 20.34-2.5 20.14-2.27 19.85-2.27L19.85-2.27Q19.58-2.27 19.37-2.48 19.17-2.69 19.02-2.88L19.02-2.88Q18.41-3.74 17.81-4.61 17.21-5.49 16.63-6.37L16.63-6.37Q14.92-8.86 13.22-11.39 11.52-13.92 9.77-16.38L9.77-16.38Q9.74-16.43 9.62-16.59 9.5-16.75 9.4-16.75L9.4-16.75Q9.28-16.75 9.25-16.5 9.23-16.26 9.23-16.21L9.23-16.21Q9.23-13.62 9.2-11.05 9.18-8.47 9.13-5.88L9.13-5.88 9.08-2.44Q9.08-2.1 9.09-1.71 9.11-1.32 9.06-0.98L9.06-0.98Q9.01-0.49 8.81-0.24 8.62 0 8.06 0L8.06 0ZM49.36 8.11L45.8 8.11Q45.46 8.11 45.07 7.98 44.68 7.86 44.68 7.4L44.68 7.4Q44.68 7.2 44.74 7.03 44.8 6.86 44.87 6.69L44.87 6.69Q45.8 4.57 46.79 2.47 47.78 0.37 48.7-1.76L48.7-1.76 48.7-1.98Q46.68-6.67 44.65-11.35 42.62-16.04 40.62-20.75L40.62-20.75Q40.45-21.14 40.45-21.44L40.45-21.44Q40.45-21.9 40.83-22.02 41.21-22.14 41.55-22.14L41.55-22.14 45.82-22.14Q46.21-22.14 46.4-21.98 46.58-21.83 46.75-21.51L46.75-21.51Q47.17-20.68 47.5-19.78 47.82-18.87 48.14-18.02L48.14-18.02Q49-15.89 49.81-13.76 50.63-11.62 51.54-9.52L51.54-9.52Q51.58-9.45 51.66-9.31 51.73-9.18 51.83-9.18L51.83-9.18Q51.93-9.18 52-9.3 52.07-9.42 52.1-9.5L52.1-9.5Q53.07-11.6 53.98-13.76 54.88-15.92 55.81-18.04L55.81-18.04Q56.17-18.9 56.53-19.81 56.88-20.73 57.32-21.56L57.32-21.56Q57.66-22.14 58.25-22.14L58.25-22.14 61.28-22.14Q61.64-22.14 62.01-22.02 62.38-21.9 62.38-21.44L62.38-21.44Q62.38-21.14 62.2-20.75L62.2-20.75Q60.42-16.41 58.58-12.08 56.74-7.76 54.93-3.42L54.93-3.42Q54.17-1.59 53.4 0.23 52.63 2.05 51.85 3.86L51.85 3.86Q51.46 4.76 51.08 5.69 50.71 6.62 50.29 7.5L50.29 7.5Q50 8.11 49.36 8.11L49.36 8.11ZM83.42-32.45L83.42-32.45Q83.42-32.32 83.25-31.54 83.08-30.76 82.89-29.97 82.71-29.17 82.64-29L82.64-29Q82.54-28.66 82.37-28.41 82.2-28.15 81.78-28.15L81.78-28.15Q81.51-28.15 81.2-28.27L81.2-28.27Q80.27-28.59 79.33-28.8 78.39-29 77.39-29L77.39-29Q76.17-29 74.96-28.66 73.75-28.32 72.94-27.49 72.14-26.66 72.14-25.2L72.14-25.2Q72.14-23.36 73.07-22.18 73.99-21 75.45-20.15 76.9-19.31 78.54-18.49 80.17-17.68 81.62-16.56 83.08-15.45 84-13.77 84.93-12.08 84.93-9.45L84.93-9.45Q84.93-5.83 83.22-3.69 81.51-1.54 78.73-0.59 75.95 0.37 72.75 0.37L72.75 0.37Q71.8 0.37 70.49 0.26 69.18 0.15 67.9-0.09 66.62-0.32 65.74-0.66L65.74-0.66Q65.45-0.78 65.25-0.95 65.06-1.12 65.06-1.49L65.06-1.49Q65.06-1.64 65.25-2.45 65.45-3.27 65.67-4.1 65.89-4.93 65.94-5.13L65.94-5.13Q66.06-5.47 66.22-5.69 66.38-5.91 66.79-5.91L66.79-5.91Q67.04-5.91 67.26-5.83L67.26-5.83Q68.45-5.49 69.68-5.25 70.92-5 72.16-5L72.16-5Q73.7-5 75.13-5.43 76.56-5.86 77.47-6.88 78.39-7.91 78.39-9.69L78.39-9.69Q78.39-11.72 77.44-12.95 76.48-14.18 75-15.03 73.51-15.87 71.83-16.64 70.16-17.41 68.67-18.43 67.18-19.46 66.23-21.09 65.28-22.73 65.28-25.34L65.28-25.34Q65.28-28.59 66.82-30.58 68.35-32.57 70.87-33.5 73.38-34.42 76.26-34.42L76.26-34.42Q77.7-34.42 79.58-34.16 81.46-33.89 82.78-33.3L82.78-33.3Q83.08-33.18 83.25-33 83.42-32.81 83.42-32.45ZM91.57-22.49L91.57-22.49Q91.57-24.58 91.55-26.67 91.52-28.76 91.52-30.83L91.52-30.83Q91.52-31.84 92.52-31.84L92.52-31.84 96.35-31.84Q97.36-31.84 97.36-30.83L97.36-30.83Q97.36-28.76 97.34-26.67 97.33-24.58 97.33-22.49L97.33-22.49Q97.33-22.19 97.65-22.19L97.65-22.19 101.48-22.19Q102.48-22.19 102.48-21.19L102.48-21.19Q102.48-20.43 102.47-19.67 102.46-18.9 102.46-18.12L102.46-18.12Q102.46-17.11 101.46-17.11L101.46-17.11 97.65-17.11Q97.33-17.11 97.33-16.82L97.33-16.82Q97.33-12.87 97.36-8.91 97.38-4.96 97.38-1L97.38-1Q97.38 0 96.38 0L96.38 0 92.5 0Q91.5 0 91.5-1L91.5-1Q91.5-4.96 91.53-8.91 91.57-12.87 91.57-16.82L91.57-16.82Q91.57-17.19 91.06-17.18 90.54-17.16 89.89-17.09 89.23-17.02 88.71-17.19 88.2-17.36 88.2-18.12L88.2-18.12 88.2-21.19Q88.2-22.19 89.2-22.19L89.2-22.19 91.25-22.19Q91.57-22.19 91.57-22.49ZM127.99 0L124.65 0Q123.79 0 123.65-0.88L123.65-0.88Q123.57-1.37 123.51-1.87 123.45-2.37 123.4-2.86L123.4-2.86Q123.4-2.93 123.35-3.11 123.31-3.3 123.18-3.3L123.18-3.3Q123.09-3.3 122.98-3.19 122.87-3.08 122.82-3L122.82-3Q121.21-1.15 118.9-0.34 116.59 0.46 114.17 0.46L114.17 0.46Q112.2 0.46 110.35-0.23 108.51-0.93 107.33-2.37 106.14-3.81 106.14-6.03L106.14-6.03Q106.14-8.86 106.18-11.71 106.22-14.55 106.22-17.36L106.22-17.36 106.22-21.14Q106.22-22.14 107.22-22.14L107.22-22.14 110.98-22.14Q111.98-22.14 111.98-21.14L111.98-21.14 111.98-17.31Q111.98-15.01 111.95-12.7 111.93-10.38 111.95-8.06L111.95-8.06Q112-6.13 113.21-5.33 114.42-4.54 116.18-4.54L116.18-4.54Q118.37-4.54 119.91-5.71 121.45-6.88 122.27-8.73 123.09-10.57 123.09-12.57L123.09-12.57 123.09-21.14Q123.09-22.14 124.09-22.14L124.09-22.14 127.82-22.14Q128.82-22.14 128.82-21.14L128.82-21.14Q128.82-20.09 128.81-19.04 128.8-17.99 128.8-16.94L128.8-16.94Q128.8-14.26 128.84-11.55 128.87-8.84 128.9-6.15L128.9-6.15Q128.92-4.88 128.96-3.6 128.99-2.32 128.99-1.03L128.99-1.03Q128.99 0 127.99 0L127.99 0ZM142.93 0.46L142.93 0.46Q139.61 0.46 137.34-1.1 135.07-2.66 133.9-5.27 132.73-7.89 132.73-10.99L132.73-10.99Q132.73-14.36 133.98-17 135.24-19.65 137.66-21.19 140.08-22.73 143.59-22.73L143.59-22.73Q147.47-22.73 150.35-20.48L150.35-20.48Q150.57-20.31 150.7-20.31L150.7-20.31Q150.84-20.31 150.87-20.48 150.89-20.65 150.89-20.73L150.89-20.73Q150.89-23.02 150.9-25.29 150.92-27.56 150.94-29.86L150.94-29.86Q150.96-30.93 150.94-32.04 150.92-33.15 150.99-34.2L150.99-34.2Q151.06-35.21 151.99-35.21L151.99-35.21 155.8-35.21Q156.8-35.21 156.8-34.18L156.8-34.18Q156.8-32.84 156.76-31.51 156.73-30.18 156.7-28.83L156.7-28.83Q156.63-23.24 156.63-17.6L156.63-17.6Q156.63-11.99 156.7-6.37L156.7-6.37Q156.73-5.03 156.76-3.7 156.8-2.37 156.8-1.03L156.8-1.03Q156.8 0 155.8 0L155.8 0 151.94 0Q151.04 0 151-0.68 150.96-1.37 150.94-2L150.94-2Q150.94-2.08 150.92-2.23 150.89-2.39 150.77-2.39L150.77-2.39Q150.65-2.39 150.43-2.22L150.43-2.22Q148.79-0.93 146.91-0.23 145.03 0.46 142.93 0.46ZM144.71-4.93L144.71-4.93Q146.86-4.93 148.5-5.91 150.13-6.88 150.89-8.96L150.89-8.96Q150.87-9.81 150.87-10.64 150.87-11.47 150.87-12.3L150.87-12.3Q150.87-12.7 150.89-13.16 150.92-13.62 150.87-13.99L150.87-13.99Q150.84-14.26 150.6-14.7 150.35-15.14 150.23-15.36L150.23-15.36Q149.33-16.72 147.83-17.4 146.33-18.07 144.71-18.07L144.71-18.07Q142.86-18.07 141.48-17.14 140.1-16.21 139.36-14.7 138.61-13.18 138.61-11.4L138.61-11.4Q138.61-9.72 139.4-8.24 140.2-6.76 141.59-5.85 142.98-4.93 144.71-4.93ZM168.98 8.11L165.41 8.11Q165.07 8.11 164.68 7.98 164.29 7.86 164.29 7.4L164.29 7.4Q164.29 7.2 164.35 7.03 164.41 6.86 164.49 6.69L164.49 6.69Q165.41 4.57 166.4 2.47 167.39 0.37 168.32-1.76L168.32-1.76 168.32-1.98Q166.29-6.67 164.27-11.35 162.24-16.04 160.24-20.75L160.24-20.75Q160.07-21.14 160.07-21.44L160.07-21.44Q160.07-21.9 160.45-22.02 160.82-22.14 161.17-22.14L161.17-22.14 165.44-22.14Q165.83-22.14 166.01-21.98 166.2-21.83 166.37-21.51L166.37-21.51Q166.78-20.68 167.11-19.78 167.44-18.87 167.76-18.02L167.76-18.02Q168.61-15.89 169.43-13.76 170.25-11.62 171.15-9.52L171.15-9.52Q171.2-9.45 171.27-9.31 171.35-9.18 171.44-9.18L171.44-9.18Q171.54-9.18 171.62-9.3 171.69-9.42 171.71-9.5L171.71-9.5Q172.69-11.6 173.59-13.76 174.5-15.92 175.42-18.04L175.42-18.04Q175.79-18.9 176.14-19.81 176.5-20.73 176.94-21.56L176.94-21.56Q177.28-22.14 177.87-22.14L177.87-22.14 180.89-22.14Q181.26-22.14 181.63-22.02 181.99-21.9 181.99-21.44L181.99-21.44Q181.99-21.14 181.82-20.75L181.82-20.75Q180.04-16.41 178.2-12.08 176.35-7.76 174.55-3.42L174.55-3.42Q173.79-1.59 173.02 0.23 172.25 2.05 171.47 3.86L171.47 3.86Q171.08 4.76 170.7 5.69 170.32 6.62 169.91 7.5L169.91 7.5Q169.61 8.11 168.98 8.11L168.98 8.11ZM207.99-7.69L207.99-7.69Q208.33-7.69 208.52-7.46 208.7-7.23 208.84-6.96L208.84-6.96Q208.99-6.71 209.43-5.82 209.87-4.93 210.26-4.06 210.65-3.2 210.65-3L210.65-3Q210.65-2.64 210.24-2.29L210.24-2.29Q208.5-0.98 205.92-0.31 203.33 0.37 201.15 0.37L201.15 0.37Q196.03 0.37 192.35-1.95 188.68-4.27 186.71-8.23 184.75-12.18 184.75-17.11L184.75-17.11Q184.75-20.65 185.79-23.82 186.82-26.98 188.83-29.41 190.83-31.84 193.74-33.22 196.66-34.59 200.42-34.59L200.42-34.59Q202.64-34.59 205.16-33.98 207.67-33.37 209.53-32.15L209.53-32.15Q210.02-31.84 210.02-31.42L210.02-31.42Q210.02-31.3 209.78-30.71 209.55-30.13 209.24-29.38 208.92-28.64 208.64-28.03 208.36-27.42 208.26-27.22L208.26-27.22Q208.14-26.98 207.95-26.72 207.77-26.46 207.43-26.46L207.43-26.46Q207.21-26.46 207.03-26.57 206.84-26.68 206.65-26.78L206.65-26.78Q205.26-27.66 203.83-28.19 202.4-28.71 200.71-28.71L200.71-28.71Q198.44-28.71 196.66-27.7 194.88-26.68 193.65-25 192.41-23.32 191.78-21.26 191.14-19.21 191.14-17.16L191.14-17.16Q191.14-14.06 192.23-11.41 193.32-8.76 195.54-7.14 197.76-5.52 201.13-5.52L201.13-5.52Q202.84-5.52 204.29-5.98 205.74-6.45 207.16-7.35L207.16-7.35Q207.36-7.47 207.55-7.58 207.75-7.69 207.99-7.69ZM213.97-10.96L213.97-10.96Q213.97-14.36 215.42-17.02 216.87-19.68 219.49-21.23 222.1-22.78 225.52-22.78L225.52-22.78Q228.89-22.78 231.4-21.25 233.92-19.73 235.32-17.09 236.72-14.45 236.72-11.16L236.72-11.16Q236.72-7.76 235.33-5.14 233.94-2.51 231.41-1.03 228.89 0.46 225.42 0.46L225.42 0.46Q221.98 0.46 219.4-0.96 216.83-2.39 215.4-4.96 213.97-7.52 213.97-10.96ZM225.4-17.85L225.4-17.85Q223.54-17.85 222.29-16.86 221.05-15.87 220.41-14.33 219.78-12.79 219.78-11.11L219.78-11.11Q219.78-9.52 220.45-8.06 221.12-6.59 222.37-5.66 223.61-4.74 225.32-4.74L225.32-4.74Q227.18-4.74 228.41-5.68 229.64-6.62 230.27-8.11 230.89-9.59 230.89-11.28L230.89-11.28Q230.89-12.92 230.27-14.42 229.64-15.92 228.42-16.88 227.2-17.85 225.4-17.85ZM241.73-22.14L241.73-22.14 245.05-22.14Q245.88-22.14 246.02-21.26L246.02-21.26Q246.07-21.07 246.12-20.48 246.17-19.9 246.25-19.38 246.34-18.87 246.49-18.87L246.49-18.87Q246.61-18.87 246.71-18.98 246.8-19.09 246.85-19.17L246.85-19.17Q248.46-21.09 250.55-21.91 252.64-22.73 255.1-22.73L255.1-22.73Q257.11-22.73 259-22 260.89-21.26 261.79-19.31L261.79-19.31Q261.84-19.24 261.89-19.12 261.94-18.99 262.06-18.99L262.06-18.99Q262.16-18.99 262.23-19.08 262.31-19.17 262.36-19.21L262.36-19.21Q263.87-20.87 265.87-21.79 267.87-22.71 270.12-22.71L270.12-22.71Q273.1-22.71 275.26-21.06 277.42-19.41 277.42-16.21L277.42-16.21Q277.42-13.65 277.47-11.07 277.52-8.5 277.57-5.93L277.57-5.93Q277.61-4.71 277.68-3.48 277.74-2.25 277.74-1.03L277.74-1.03Q277.74 0 276.74 0L276.74 0 272.93 0Q272.39 0 272.18-0.24 271.97-0.49 271.93-0.98L271.93-0.98Q271.83-2 271.85-3.06 271.88-4.13 271.83-5.15L271.83-5.15Q271.8-7.35 271.77-9.55 271.73-11.74 271.73-13.94L271.73-13.94Q271.73-15.65 270.91-16.61 270.09-17.58 268.34-17.58L268.34-17.58Q266.31-17.58 264.89-16.33 263.48-15.09 262.73-13.24 261.99-11.4 261.99-9.62L261.99-9.62Q261.99-7.47 262.01-5.32 262.04-3.17 262.04-1L262.04-1Q262.04 0 261.04 0L261.04 0 257.18 0Q256.18 0 256.18-1L256.18-1Q256.18-4.25 256.23-7.47 256.28-10.69 256.23-13.94L256.23-13.94Q256.2-15.58 255.41-16.58 254.62-17.58 252.88-17.58L252.88-17.58Q250.81-17.58 249.39-16.35 247.98-15.11 247.24-13.26 246.51-11.4 246.46-9.57L246.46-9.57Q246.44-8.08 246.41-6.59 246.39-5.1 246.34-3.59L246.34-3.59Q246.34-2.95 246.35-2.28 246.36-1.61 246.29-0.98L246.29-0.98Q246.24-0.49 246.03-0.24 245.83 0 245.29 0L245.29 0 241.46 0Q240.46 0 240.46-1.05L240.46-1.05Q240.46-2.32 240.52-3.58 240.58-4.83 240.6-6.1L240.6-6.1Q240.75-11.45 240.75-16.77L240.75-16.77Q240.75-17.77 240.7-18.97 240.65-20.17 240.72-21.14L240.72-21.14Q240.8-22.14 241.73-22.14ZM283.67-22.14L283.67-22.14 286.99-22.14Q287.82-22.14 287.96-21.26L287.96-21.26Q288.01-21.07 288.06-20.48 288.11-19.9 288.2-19.38 288.28-18.87 288.43-18.87L288.43-18.87Q288.55-18.87 288.65-18.98 288.74-19.09 288.79-19.17L288.79-19.17Q290.4-21.09 292.49-21.91 294.58-22.73 297.05-22.73L297.05-22.73Q299.05-22.73 300.94-22 302.83-21.26 303.73-19.31L303.73-19.31Q303.78-19.24 303.83-19.12 303.88-18.99 304-18.99L304-18.99Q304.1-18.99 304.17-19.08 304.25-19.17 304.3-19.21L304.3-19.21Q305.81-20.87 307.81-21.79 309.81-22.71 312.06-22.71L312.06-22.71Q315.04-22.71 317.2-21.06 319.36-19.41 319.36-16.21L319.36-16.21Q319.36-13.65 319.41-11.07 319.46-8.5 319.51-5.93L319.51-5.93Q319.56-4.71 319.62-3.48 319.68-2.25 319.68-1.03L319.68-1.03Q319.68 0 318.68 0L318.68 0 314.87 0Q314.33 0 314.12-0.24 313.92-0.49 313.87-0.98L313.87-0.98Q313.77-2 313.79-3.06 313.82-4.13 313.77-5.15L313.77-5.15Q313.74-7.35 313.71-9.55 313.67-11.74 313.67-13.94L313.67-13.94Q313.67-15.65 312.85-16.61 312.04-17.58 310.28-17.58L310.28-17.58Q308.25-17.58 306.84-16.33 305.42-15.09 304.67-13.24 303.93-11.4 303.93-9.62L303.93-9.62Q303.93-7.47 303.95-5.32 303.98-3.17 303.98-1L303.98-1Q303.98 0 302.98 0L302.98 0 299.12 0Q298.12 0 298.12-1L298.12-1Q298.12-4.25 298.17-7.47 298.22-10.69 298.17-13.94L298.17-13.94Q298.14-15.58 297.35-16.58 296.56-17.58 294.82-17.58L294.82-17.58Q292.75-17.58 291.33-16.35 289.92-15.11 289.18-13.26 288.45-11.4 288.4-9.57L288.4-9.57Q288.38-8.08 288.35-6.59 288.33-5.1 288.28-3.59L288.28-3.59Q288.28-2.95 288.29-2.28 288.31-1.61 288.23-0.98L288.23-0.98Q288.18-0.49 287.98-0.24 287.77 0 287.23 0L287.23 0 283.4 0Q282.4 0 282.4-1.05L282.4-1.05Q282.4-2.32 282.46-3.58 282.52-4.83 282.54-6.1L282.54-6.1Q282.69-11.45 282.69-16.77L282.69-16.77Q282.69-17.77 282.64-18.97 282.59-20.17 282.67-21.14L282.67-21.14Q282.74-22.14 283.67-22.14ZM346.26 0L342.92 0Q342.06 0 341.92-0.88L341.92-0.88Q341.84-1.37 341.78-1.87 341.72-2.37 341.67-2.86L341.67-2.86Q341.67-2.93 341.62-3.11 341.57-3.3 341.45-3.3L341.45-3.3Q341.35-3.3 341.24-3.19 341.13-3.08 341.09-3L341.09-3Q339.47-1.15 337.17-0.34 334.86 0.46 332.44 0.46L332.44 0.46Q330.47 0.46 328.62-0.23 326.78-0.93 325.6-2.37 324.41-3.81 324.41-6.03L324.41-6.03Q324.41-8.86 324.45-11.71 324.48-14.55 324.48-17.36L324.48-17.36 324.48-21.14Q324.48-22.14 325.49-22.14L325.49-22.14 329.24-22.14Q330.25-22.14 330.25-21.14L330.25-21.14 330.25-17.31Q330.25-15.01 330.22-12.7 330.2-10.38 330.22-8.06L330.22-8.06Q330.27-6.13 331.48-5.33 332.69-4.54 334.45-4.54L334.45-4.54Q336.64-4.54 338.18-5.71 339.72-6.88 340.54-8.73 341.35-10.57 341.35-12.57L341.35-12.57 341.35-21.14Q341.35-22.14 342.36-22.14L342.36-22.14 346.09-22.14Q347.09-22.14 347.09-21.14L347.09-21.14Q347.09-20.09 347.08-19.04 347.07-17.99 347.07-16.94L347.07-16.94Q347.07-14.26 347.1-11.55 347.14-8.84 347.16-6.15L347.16-6.15Q347.19-4.88 347.23-3.6 347.26-2.32 347.26-1.03L347.26-1.03Q347.26 0 346.26 0L346.26 0ZM353.07-22.14L356.37-22.14Q357.27-22.14 357.37-21.26L357.37-21.26Q357.44-20.78 357.49-20.29 357.54-19.8 357.59-19.31L357.59-19.31Q357.59-19.26 357.64-19.03 357.68-18.8 357.81-18.8L357.81-18.8Q357.93-18.8 358.04-18.95 358.15-19.09 358.2-19.17L358.2-19.17Q359.66-21.04 361.76-21.88 363.86-22.71 366.18-22.71L366.18-22.71Q368.09-22.71 369.68-21.91 371.28-21.12 372.26-19.67 373.24-18.21 373.24-16.21L373.24-16.21Q373.24-12.43 373.32-8.62 373.41-4.81 373.41-1.03L373.41-1.03Q373.41 0 372.41 0L372.41 0 368.57 0Q367.65 0 367.57-1L367.57-1Q367.5-2.05 367.52-3.11 367.55-4.17 367.52-5.22L367.52-5.22Q367.5-7.47 367.5-9.69 367.5-11.91 367.5-14.14L367.5-14.14Q367.5-15.87 366.5-16.74 365.5-17.6 363.84-17.6L363.84-17.6Q361.76-17.6 360.43-16.33 359.1-15.06 358.45-13.21 357.81-11.35 357.81-9.57L357.81-9.57Q357.81-7.42 357.78-5.29 357.76-3.15 357.73-1L357.73-1Q357.73 0 356.73 0L356.73 0 352.9 0Q351.9 0 351.9-1.03L351.9-1.03Q351.9-2.39 351.94-3.75 351.97-5.1 352-6.45L352-6.45Q352.07-12.16 352.07-17.87L352.07-17.87 352.07-21.14Q352.07-22.14 353.07-22.14L353.07-22.14ZM377.97-30.47L377.97-30.47Q377.97-31.81 378.97-32.78 379.97-33.74 381.32-33.74L381.32-33.74Q382.68-33.74 383.72-32.75 384.76-31.76 384.76-30.37L384.76-30.37Q384.76-29.03 383.77-28.04 382.78-27.05 381.41-27.05L381.41-27.05Q380.02-27.05 379-28.06 377.97-29.08 377.97-30.47ZM378.34-15.75L378.34-15.75 378.34-21.14Q378.34-22.14 379.34-22.14L379.34-22.14 383.1-22.14Q384.1-22.14 384.1-21.14L384.1-21.14Q384.1-16.11 384.12-11.07 384.15-6.03 384.15-1L384.15-1Q384.15 0 383.15 0L383.15 0 379.29 0Q378.29 0 378.29-1L378.29-1Q378.29-4.69 378.31-8.37 378.34-12.06 378.34-15.75ZM391.66-22.49L391.66-22.49Q391.66-24.58 391.64-26.67 391.62-28.76 391.62-30.83L391.62-30.83Q391.62-31.84 392.62-31.84L392.62-31.84 396.45-31.84Q397.45-31.84 397.45-30.83L397.45-30.83Q397.45-28.76 397.44-26.67 397.43-24.58 397.43-22.49L397.43-22.49Q397.43-22.19 397.74-22.19L397.74-22.19 401.58-22.19Q402.58-22.19 402.58-21.19L402.58-21.19Q402.58-20.43 402.57-19.67 402.55-18.9 402.55-18.12L402.55-18.12Q402.55-17.11 401.55-17.11L401.55-17.11 397.74-17.11Q397.43-17.11 397.43-16.82L397.43-16.82Q397.43-12.87 397.45-8.91 397.47-4.96 397.47-1L397.47-1Q397.47 0 396.47 0L396.47 0 392.59 0Q391.59 0 391.59-1L391.59-1Q391.59-4.96 391.63-8.91 391.66-12.87 391.66-16.82L391.66-16.82Q391.66-17.19 391.15-17.18 390.64-17.16 389.98-17.09 389.32-17.02 388.81-17.19 388.3-17.36 388.3-18.12L388.3-18.12 388.3-21.19Q388.3-22.19 389.3-22.19L389.3-22.19 391.35-22.19Q391.66-22.19 391.66-22.49ZM413.68 8.11L410.12 8.11Q409.78 8.11 409.39 7.98 409 7.86 409 7.4L409 7.4Q409 7.2 409.06 7.03 409.12 6.86 409.19 6.69L409.19 6.69Q410.12 4.57 411.11 2.47 412.1 0.37 413.02-1.76L413.02-1.76 413.02-1.98Q411-6.67 408.97-11.35 406.94-16.04 404.94-20.75L404.94-20.75Q404.77-21.14 404.77-21.44L404.77-21.44Q404.77-21.9 405.15-22.02 405.53-22.14 405.87-22.14L405.87-22.14 410.14-22.14Q410.53-22.14 410.72-21.98 410.9-21.83 411.07-21.51L411.07-21.51Q411.49-20.68 411.82-19.78 412.15-18.87 412.46-18.02L412.46-18.02Q413.32-15.89 414.13-13.76 414.95-11.62 415.86-9.52L415.86-9.52Q415.9-9.45 415.98-9.31 416.05-9.18 416.15-9.18L416.15-9.18Q416.25-9.18 416.32-9.3 416.39-9.42 416.42-9.5L416.42-9.5Q417.39-11.6 418.3-13.76 419.2-15.92 420.13-18.04L420.13-18.04Q420.49-18.9 420.85-19.81 421.2-20.73 421.64-21.56L421.64-21.56Q421.98-22.14 422.57-22.14L422.57-22.14 425.6-22.14Q425.96-22.14 426.33-22.02 426.7-21.9 426.7-21.44L426.7-21.44Q426.7-21.14 426.53-20.75L426.53-20.75Q424.74-16.41 422.9-12.08 421.06-7.76 419.25-3.42L419.25-3.42Q418.49-1.59 417.72 0.23 416.95 2.05 416.17 3.86L416.17 3.86Q415.78 4.76 415.4 5.69 415.03 6.62 414.61 7.5L414.61 7.5Q414.32 8.11 413.68 8.11L413.68 8.11Z" fill="#ff7474" data-fill-palette-color="primary"></path></g></svg></g></svg></g></svg></g></svg></g><g></g></svg></g><defs></defs></svg><rect width="395.52" height="40.43174369021551" fill="none" stroke="none" visibility="hidden"></rect></g></svg></g></svg>